<?xml version="1.0" encoding="UTF-8"?><!DOCTYPE svg PUBLIC "-//W3C//DTD SVG 1.1//EN" "http://www.w3.org/Graphics/SVG/1.1/DTD/svg11.dtd"><svg xmlns="http://www.w3.org/2000/svg" xmlns:xlink="http://www.w3.org/1999/xlink"><symbol id="icon-arrow"><path fill-rule="evenodd" clip-rule="evenodd" d="M0 1.4L4.6 6 0 10.6 1.4 12l6-6-6-6L0 1.4z" fill="#2C2E3F" fill-opacity=".5"/></symbol><symbol id="icon-cross"><path d="M1 23.721L23 1m0 22.721L1 1" stroke="#141517" stroke-opacity=".2" stroke-linecap="round" stroke-linejoin="round"/></symbol><symbol id="icon-ellipse-small"><circle cx="47.5" cy="47.5" r="39" stroke="#0AD9C6" stroke-width="17"/></symbol><symbol id="icon-ellipse"><circle cx="90" cy="90" r="76.5" stroke="#0AD9C6" stroke-width="27"/></symbol><symbol id="icon-mail"><path d="M24.227 0H1.773C.768 0 0 .765 0 1.765v16.47C0 19.235.768 20 1.773 20h22.454C25.232 20 26 19.235 26 18.235V1.765C26 .765 25.232 0 24.227 0zm0 17l-4.668-4.647a.86.86 0 00-1.24 0 .85.85 0 000 1.235l4.667 4.647H3.014l4.668-4.647a.85.85 0 000-1.235.86.86 0 00-1.241 0L1.773 17V5.706l10.636 8a.955.955 0 00.532.176.955.955 0 00.532-.176l10.754-8V17zm0-15.235V3.47l-11.286 8.352L1.773 3.471V1.765h22.454z" fill="#0AD9C6"/></symbol><symbol id="icon-menu"><path fill-rule="evenodd" clip-rule="evenodd" d="M.75 14h22.5v-1H.75v1zm0-6.25h22.5v-1H.75v1zM.75.5v1h22.5v-1H.75z" fill="#000"/></symbol><symbol id="icon-phone"><path d="M1.456 6.624c-.084-1.198.182-2.378.885-3.327.61-.86 1.404-1.33 2.362-1.605.806-.24 1.334.054 1.567.95.332 1.34.806 2.68.978 4.092.055.62-.347 1.5-.782 1.952-1.09 1.073-.863 1.854-.036 3.478.257.524.664 1.43 1.459 2.628.827 1.207 1.265 1.855 2.328 1.306 1.18-.594 2.041-.212 2.932.746.604.693 1.269 1.288 1.873 1.98.872 1.03.833 1.74.15 2.467-1.229 1.34-3.258 1.783-4.768.886-.833-.489-1.664-1.128-2.325-1.874-2.914-3.32-5.016-7.182-6.281-11.54a10.989 10.989 0 01-.342-2.139z" stroke="#0AD9C6" stroke-width="2" stroke-miterlimit="10"/></symbol><symbol id="icon-play"><path fill-rule="evenodd" clip-rule="evenodd" d="M45.179 90.358c24.951 0 45.179-20.228 45.179-45.18C90.358 20.229 70.13 0 45.178 0 20.229 0 0 20.227 0 45.179 0 70.13 20.227 90.358 45.179 90.358z" fill="#0AD9C6"/><path fill-rule="evenodd" clip-rule="evenodd" d="M39.757 32.529l18.072 12.65-18.072 12.65v-25.3z" fill="#070707"/></symbol><symbol id="icon-rectangle"><path stroke="#0AD9C6" stroke-width="8" d="M4 4h39v39H4z"/></symbol></svg>