<?xml version="1.0" encoding="UTF-8"?><!DOCTYPE svg PUBLIC "-//W3C//DTD SVG 1.1//EN" "http://www.w3.org/Graphics/SVG/1.1/DTD/svg11.dtd"><svg xmlns="http://www.w3.org/2000/svg" xmlns:xlink="http://www.w3.org/1999/xlink"><symbol id="icon-arrow" viewBox="0 0 8 12">
<path fill-rule="evenodd" clip-rule="evenodd" d="M0 1.4L4.6 6L0 10.6L1.4 12L7.4 6L1.4 0L0 1.4Z" fill="#2C2E3F" fill-opacity="0.5"/>
</symbol><symbol id="icon-cross" viewBox="0 0 24 25">
<path d="M1 23.7213L23 1M23 23.7213L1 1" stroke="#141517" stroke-opacity="0.2" stroke-linecap="round" stroke-linejoin="round"/>
</symbol><symbol id="icon-ellipse-small" viewBox="0 0 95 95">
<circle cx="47.5" cy="47.5" r="39" stroke="#0AD9C6" stroke-width="17"/>
</symbol><symbol id="icon-ellipse" viewBox="0 0 180 180">
<circle cx="90" cy="90" r="76.5" stroke="#0AD9C6" stroke-width="27"/>
</symbol><symbol id="icon-mail" viewBox="0 0 26 20">
<path d="M24.2273 0H1.77273C0.768182 0 0 0.764706 0 1.76471V18.2353C0 19.2353 0.768182 20 1.77273 20H24.2273C25.2318 20 26 19.2353 26 18.2353V1.76471C26 0.764706 25.2318 0 24.2273 0ZM24.2273 17L19.5591 12.3529C19.2045 12 18.6727 12 18.3182 12.3529C17.9636 12.7059 17.9636 13.2353 18.3182 13.5882L22.9864 18.2353H3.01362L7.68182 13.5882C8.03636 13.2353 8.03636 12.7059 7.68182 12.3529C7.32727 12 6.79547 12 6.44092 12.3529L1.77273 17V5.70585L12.4091 13.7059C12.5864 13.8236 12.7636 13.8823 12.9409 13.8823C13.1182 13.8823 13.2954 13.8236 13.4727 13.7059L24.2273 5.70585V17ZM24.2273 1.76471V3.4706L12.9409 11.8235L1.77273 3.4706V1.76471H24.2273Z" fill="#0AD9C6"/>
</symbol><symbol id="icon-menu" viewBox="0 0 24 14">
<path fill-rule="evenodd" clip-rule="evenodd" d="M0.75 14H23.25V13H0.75V14ZM0.75 7.74996H23.25V6.74996H0.75V7.74996ZM0.75 0.5V1.5H23.25V0.5H0.75Z" fill="black"/>
</symbol><symbol id="icon-phone" viewBox="0 0 17 24">
<path d="M1.45641 6.62432C1.37185 5.42623 1.63759 4.24606 2.3412 3.29684C2.9512 2.43632 3.74541 1.96636 4.70269 1.69172C5.50898 1.4525 6.03745 1.74561 6.26998 2.64204C6.60217 3.98224 7.07628 5.3225 7.24841 6.73361C7.30277 7.35485 6.90114 8.23322 6.46629 8.6856C5.37614 9.75888 5.60263 10.5399 6.43006 12.1643C6.68675 12.6881 7.09442 13.5934 7.88864 14.7919C8.71607 15.9992 9.15395 16.6472 10.2169 16.0975C11.3977 15.5035 12.2583 15.8855 13.1492 16.8444C13.7531 17.5369 14.4175 18.1318 15.0215 18.8243C15.8942 19.8542 15.8549 20.5641 15.1725 21.2915C13.9434 22.6309 11.9141 23.0736 10.4042 22.1766C9.5707 21.6881 8.74024 21.0487 8.0789 20.303C5.16477 16.9825 3.06297 13.1212 1.79765 8.76321C1.59532 8.02654 1.50171 7.28104 1.45641 6.62432Z" stroke="#0AD9C6" stroke-width="2" stroke-miterlimit="10"/>
</symbol><symbol id="icon-play" viewBox="0 0 91 91">
<path fill-rule="evenodd" clip-rule="evenodd" d="M45.1788 90.3576C70.1303 90.3576 90.3576 70.1303 90.3576 45.1788C90.3576 20.2272 70.1303 0 45.1788 0C20.2272 0 0 20.2272 0 45.1788C0 70.1303 20.2272 90.3576 45.1788 90.3576Z" fill="#0AD9C6"/>
<path fill-rule="evenodd" clip-rule="evenodd" d="M39.7573 32.5286L57.8288 45.1786L39.7573 57.8287V32.5286Z" fill="#070707"/>
</symbol><symbol id="icon-rectangle" viewBox="0 0 47 47">
<rect x="4" y="4" width="39" height="39" stroke="#0AD9C6" stroke-width="8"/>
</symbol></svg>